<svg xmlns="http://www.w3.org/2000/svg" width="128" height="128" viewBox="0 0 128 128">
  <title>DISC</title>
  <g>
    <path d="M64,6.306A57.694,57.694,0,1,0,121.694,64,57.695,57.695,0,0,0,64,6.306Zm0,68.75A11.056,11.056,0,1,1,75.056,64,11.056,11.056,0,0,1,64,75.056Z" fill="#e5e5e5"/>
    <path d="M64,37.052A26.948,26.948,0,1,0,90.948,64,26.948,26.948,0,0,0,64,37.052Zm0,38A11.056,11.056,0,1,1,75.056,64,11.056,11.056,0,0,1,64,75.056Z" fill="#f7b82d"/>
    <path d="M43.223,25.129a1.75,1.75,0,0,1-.8-3.308,47.4,47.4,0,0,1,5.129-2.255,1.75,1.75,0,0,1,1.216,3.283,43.644,43.644,0,0,0-4.749,2.088A1.755,1.755,0,0,1,43.223,25.129Z" fill="#707070"/>
    <path d="M21.208,49.912a1.753,1.753,0,0,1-1.642-2.359,47.361,47.361,0,0,1,15.95-21.4,1.75,1.75,0,0,1,2.107,2.8A43.86,43.86,0,0,0,22.849,48.769,1.752,1.752,0,0,1,21.208,49.912Z" fill="#707070"/>
    <path d="M79.839,108.543a1.751,1.751,0,0,1-.608-3.392,43.644,43.644,0,0,0,4.749-2.088,1.75,1.75,0,0,1,1.6,3.116,47.4,47.4,0,0,1-5.129,2.255A1.751,1.751,0,0,1,79.839,108.543Z" fill="#707070"/>
    <path d="M91.432,102.2a1.75,1.75,0,0,1-1.055-3.148,43.86,43.86,0,0,0,14.774-19.823,1.75,1.75,0,0,1,3.283,1.216,47.361,47.361,0,0,1-15.95,21.4A1.742,1.742,0,0,1,91.432,102.2Z" fill="#707070"/>
  </g>
</svg>
